<svg xmlns="http://www.w3.org/2000/svg" viewBox="0 0 800 580" font-family="sans-serif">
<defs><linearGradient id="poor-to-rich" gradientUnits="userSpaceOnUse" x1="250" y1="0" x2="550" y2="0"><stop offset="0" stop-color="#2b6cb0"/><stop offset="1" stop-color="#d62828"/></linearGradient></defs>
<text x="466" y="34" font-size="13" font-style="italic" text-anchor="start" fill="#6b7280">Air in and out</text>
<text x="24" y="118" font-size="13" font-style="italic" text-anchor="start" fill="#6b7280">Oxygen-poor blood</text>
<text x="24" y="135" font-size="13" font-style="italic" text-anchor="start" fill="#6b7280">from the heart</text>
<text x="776" y="118" font-size="13" font-style="italic" text-anchor="end" fill="#6b7280">Oxygen-rich blood</text>
<text x="776" y="135" font-size="13" font-style="italic" text-anchor="end" fill="#6b7280">back to the heart</text>
<g data-part="alveolus"><circle cx="400" cy="250" r="172" fill="#e4f3fb"/><rect x="360" y="0" width="80" height="100" fill="#e4f3fb"/><text x="400" y="160" font-size="16" text-anchor="middle" fill="#1f2024">Air sac (alveolus)</text><path d="M400,22 L400,66 M393,30 L400,18 L407,30 M393,58 L400,70 L407,58" fill="none" stroke="#6b7280" stroke-width="2"/></g>
<g data-part="alveolus-wall"><path d="M354,-6 L354,78 A178,178 0 1 0 446,78 L446,-6" fill="none" stroke="#333" stroke-width="20" stroke-linejoin="round"/><path d="M354,-6 L354,78 A178,178 0 1 0 446,78 L446,-6" fill="none" stroke="#f3cfa6" stroke-width="16" stroke-linejoin="round"/><path d="M285.1,124.7 L274.3,112.9 M242.9,184.9 L228.2,178.8 M230.2,257.4 L214.2,258.1 M249.2,328.5 L235.0,335.9 M296.5,384.9 L286.8,397.6 M363.2,416.0 L359.7,431.6 M436.8,416.0 L440.3,431.6 M503.5,384.9 L513.2,397.6 M550.8,328.5 L565.0,335.9 M569.8,257.4 L585.8,258.1 M557.1,184.9 L571.8,178.8 M514.9,124.7 L525.7,112.9 M451.1,87.9 L455.9,72.6 M348.9,87.9 L344.1,72.6 M346,40 L362,40 M438,40 L454,40" fill="none" stroke="#333" stroke-width="1.5"/><ellipse cx="311.0" cy="95.8" rx="6" ry="3" fill="#a3683a" transform="rotate(150.0 311.0 95.8)"/><ellipse cx="254.2" cy="147.9" rx="6" ry="3" fill="#a3683a" transform="rotate(125.0 254.2 147.9)"/><ellipse cx="224.7" cy="219.1" rx="6" ry="3" fill="#a3683a" transform="rotate(100.0 224.7 219.1)"/><ellipse cx="228.1" cy="296.1" rx="6" ry="3" fill="#a3683a" transform="rotate(75.0 228.1 296.1)"/><ellipse cx="263.6" cy="364.4" rx="6" ry="3" fill="#a3683a" transform="rotate(50.0 263.6 364.4)"/><ellipse cx="324.8" cy="411.3" rx="6" ry="3" fill="#a3683a" transform="rotate(25.0 324.8 411.3)"/><ellipse cx="400.0" cy="428.0" rx="6" ry="3" fill="#a3683a" transform="rotate(0.0 400.0 428.0)"/><ellipse cx="475.2" cy="411.3" rx="6" ry="3" fill="#a3683a" transform="rotate(-25.0 475.2 411.3)"/><ellipse cx="536.4" cy="364.4" rx="6" ry="3" fill="#a3683a" transform="rotate(-50.0 536.4 364.4)"/><ellipse cx="571.9" cy="296.1" rx="6" ry="3" fill="#a3683a" transform="rotate(-75.0 571.9 296.1)"/><ellipse cx="575.3" cy="219.1" rx="6" ry="3" fill="#a3683a" transform="rotate(-100.0 575.3 219.1)"/><ellipse cx="545.8" cy="147.9" rx="6" ry="3" fill="#a3683a" transform="rotate(-125.0 545.8 147.9)"/><ellipse cx="489.0" cy="95.8" rx="6" ry="3" fill="#a3683a" transform="rotate(-150.0 489.0 95.8)"/><line x1="204" y1="62" x2="262" y2="128" stroke="#555" stroke-width="1"/><text x="200" y="60" font-size="16" text-anchor="end" fill="#1f2024">Air sac wall</text></g>
<g data-part="capillary"><path d="M-10,170 C110,170 185,190 185,250 A215,215 0 0 0 615,250 C615,190 690,170 810,170" fill="none" stroke="#333" stroke-width="56"/><path d="M-10,170 C110,170 185,190 185,250 A215,215 0 0 0 615,250 C615,190 690,170 810,170" fill="none" stroke="url(#poor-to-rich)" stroke-width="52"/><path d="M52,170 L38,162 L38,178 Z M762,170 L748,162 L748,178 Z" fill="#fff"/><line x1="400" y1="538" x2="400" y2="494" stroke="#555" stroke-width="1"/><text x="400" y="556" font-size="16" text-anchor="middle" fill="#1f2024">Capillary</text></g>
<g data-part="red-blood-cell"><ellipse cx="185.1" cy="257.5" rx="17" ry="11" fill="#8a1f30" stroke="#333" stroke-width="1.5" transform="rotate(88.0 185.1 257.5)"/><ellipse cx="185.1" cy="257.5" rx="8" ry="4.5" fill="#6d1525" transform="rotate(88.0 185.1 257.5)"/></g>
<g data-part="red-blood-cell"><ellipse cx="217.7" cy="363.9" rx="17" ry="11" fill="#8a1f30" stroke="#333" stroke-width="1.5" transform="rotate(58.0 217.7 363.9)"/><ellipse cx="217.7" cy="363.9" rx="8" ry="4.5" fill="#6d1525" transform="rotate(58.0 217.7 363.9)"/><line x1="118" y1="452" x2="206" y2="374" stroke="#555" stroke-width="1"/><text x="24" y="472" font-size="16" text-anchor="start" fill="#1f2024">Red blood cell</text></g>
<g data-part="red-blood-cell"><ellipse cx="286.1" cy="432.3" rx="17" ry="11" fill="#a32a36" stroke="#333" stroke-width="1.5" transform="rotate(32.0 286.1 432.3)"/><ellipse cx="286.1" cy="432.3" rx="8" ry="4.5" fill="#84202b" transform="rotate(32.0 286.1 432.3)"/></g>
<g data-part="red-blood-cell"><ellipse cx="400.0" cy="465.0" rx="17" ry="11" fill="#c8443f" stroke="#333" stroke-width="1.5" transform="rotate(0.0 400.0 465.0)"/><ellipse cx="400.0" cy="465.0" rx="8" ry="4.5" fill="#a73430" transform="rotate(0.0 400.0 465.0)"/></g>
<g data-part="red-blood-cell"><ellipse cx="513.9" cy="432.3" rx="17" ry="11" fill="#f07a68" stroke="#333" stroke-width="1.5" transform="rotate(-32.0 513.9 432.3)"/><ellipse cx="513.9" cy="432.3" rx="8" ry="4.5" fill="#d95f50" transform="rotate(-32.0 513.9 432.3)"/></g>
<g data-part="red-blood-cell"><ellipse cx="582.3" cy="363.9" rx="17" ry="11" fill="#ff9d8c" stroke="#333" stroke-width="1.5" transform="rotate(-58.0 582.3 363.9)"/><ellipse cx="582.3" cy="363.9" rx="8" ry="4.5" fill="#ee7f6e" transform="rotate(-58.0 582.3 363.9)"/></g>
<g data-part="red-blood-cell"><ellipse cx="614.9" cy="257.5" rx="17" ry="11" fill="#ffa797" stroke="#333" stroke-width="1.5" transform="rotate(-88.0 614.9 257.5)"/><ellipse cx="614.9" cy="257.5" rx="8" ry="4.5" fill="#ee8676" transform="rotate(-88.0 614.9 257.5)"/></g>
<g data-part="red-blood-cell"><ellipse cx="105.0" cy="172.0" rx="17" ry="11" fill="#8a1f30" stroke="#333" stroke-width="1.5" transform="rotate(6.0 105.0 172.0)"/><ellipse cx="105.0" cy="172.0" rx="8" ry="4.5" fill="#6d1525" transform="rotate(6.0 105.0 172.0)"/></g>
<g data-part="red-blood-cell"><ellipse cx="695.0" cy="172.0" rx="17" ry="11" fill="#ffa797" stroke="#333" stroke-width="1.5" transform="rotate(-6.0 695.0 172.0)"/><ellipse cx="695.0" cy="172.0" rx="8" ry="4.5" fill="#ee8676" transform="rotate(-6.0 695.0 172.0)"/></g>
<g data-part="oxygen"><path d="M449.9,387.2 L471.1,445.5" fill="none" stroke="#000" stroke-opacity="0" stroke-width="14"/><path d="M449.9,387.2 L466.7,433.2" fill="none" stroke="#333" stroke-width="7"/><path d="M471.1,445.5 L459.2,436.0 L474.2,430.5 Z" fill="#f58a1f" stroke="#333" stroke-width="1.5" stroke-linejoin="round"/><path d="M449.9,387.2 L466.7,433.2" fill="none" stroke="#f58a1f" stroke-width="4"/><circle cx="477.6" cy="463.3" r="6.5" fill="#f58a1f" stroke="#333" stroke-width="1.5"/><circle cx="443.8" cy="370.3" r="6.5" fill="#f58a1f" stroke="#333" stroke-width="1.5"/><path d="M503.2,353.2 L547.1,397.1" fill="none" stroke="#000" stroke-opacity="0" stroke-width="14"/><path d="M503.2,353.2 L537.9,387.9" fill="none" stroke="#333" stroke-width="7"/><path d="M547.1,397.1 L532.2,393.5 L543.5,382.2 Z" fill="#f58a1f" stroke="#333" stroke-width="1.5" stroke-linejoin="round"/><path d="M503.2,353.2 L537.9,387.9" fill="none" stroke="#f58a1f" stroke-width="4"/><circle cx="560.5" cy="410.5" r="6.5" fill="#f58a1f" stroke="#333" stroke-width="1.5"/><circle cx="490.5" cy="340.5" r="6.5" fill="#f58a1f" stroke="#333" stroke-width="1.5"/><path d="M537.2,299.9 L595.5,321.1" fill="none" stroke="#000" stroke-opacity="0" stroke-width="14"/><path d="M537.2,299.9 L583.2,316.7" fill="none" stroke="#333" stroke-width="7"/><path d="M595.5,321.1 L580.5,324.2 L586.0,309.2 Z" fill="#f58a1f" stroke="#333" stroke-width="1.5" stroke-linejoin="round"/><path d="M537.2,299.9 L583.2,316.7" fill="none" stroke="#f58a1f" stroke-width="4"/><circle cx="613.3" cy="327.6" r="6.5" fill="#f58a1f" stroke="#333" stroke-width="1.5"/><circle cx="520.3" cy="293.8" r="6.5" fill="#f58a1f" stroke="#333" stroke-width="1.5"/><circle cx="482.0" cy="118.0" r="6.5" fill="#f58a1f" stroke="#333" stroke-width="1.5"/><circle cx="528.0" cy="196.0" r="6.5" fill="#f58a1f" stroke="#333" stroke-width="1.5"/><circle cx="452.0" cy="208.0" r="6.5" fill="#f58a1f" stroke="#333" stroke-width="1.5"/><text x="470" y="256" font-size="16" text-anchor="middle" fill="#1f2024">Oxygen</text></g>
<g data-part="carbon-dioxide"><path d="M328.9,445.5 L350.1,387.2" fill="none" stroke="#000" stroke-opacity="0" stroke-width="14"/><path d="M328.9,445.5 L345.6,399.4" fill="none" stroke="#333" stroke-width="7"/><path d="M350.1,387.2 L353.1,402.1 L338.1,396.7 Z" fill="#aebccb" stroke="#333" stroke-width="1.5" stroke-linejoin="round"/><path d="M328.9,445.5 L345.6,399.4" fill="none" stroke="#aebccb" stroke-width="4"/><circle cx="322.4" cy="463.3" r="6.5" fill="#aebccb" stroke="#333" stroke-width="1.5"/><circle cx="356.2" cy="370.3" r="6.5" fill="#aebccb" stroke="#333" stroke-width="1.5"/><path d="M252.9,397.1 L296.8,353.2" fill="none" stroke="#000" stroke-opacity="0" stroke-width="14"/><path d="M252.9,397.1 L287.6,362.4" fill="none" stroke="#333" stroke-width="7"/><path d="M296.8,353.2 L293.2,368.1 L281.9,356.8 Z" fill="#aebccb" stroke="#333" stroke-width="1.5" stroke-linejoin="round"/><path d="M252.9,397.1 L287.6,362.4" fill="none" stroke="#aebccb" stroke-width="4"/><circle cx="239.5" cy="410.5" r="6.5" fill="#aebccb" stroke="#333" stroke-width="1.5"/><circle cx="309.5" cy="340.5" r="6.5" fill="#aebccb" stroke="#333" stroke-width="1.5"/><path d="M204.5,321.1 L262.8,299.9" fill="none" stroke="#000" stroke-opacity="0" stroke-width="14"/><path d="M204.5,321.1 L250.6,304.4" fill="none" stroke="#333" stroke-width="7"/><path d="M262.8,299.9 L253.3,311.9 L247.9,296.9 Z" fill="#aebccb" stroke="#333" stroke-width="1.5" stroke-linejoin="round"/><path d="M204.5,321.1 L250.6,304.4" fill="none" stroke="#aebccb" stroke-width="4"/><circle cx="186.7" cy="327.6" r="6.5" fill="#aebccb" stroke="#333" stroke-width="1.5"/><circle cx="279.7" cy="293.8" r="6.5" fill="#aebccb" stroke="#333" stroke-width="1.5"/><circle cx="318.0" cy="118.0" r="6.5" fill="#aebccb" stroke="#333" stroke-width="1.5"/><circle cx="300.0" cy="200.0" r="6.5" fill="#aebccb" stroke="#333" stroke-width="1.5"/><circle cx="380.0" cy="96.0" r="6.5" fill="#aebccb" stroke="#333" stroke-width="1.5"/><text x="318" y="256" font-size="16" text-anchor="middle" fill="#1f2024">Carbon dioxide</text></g>
</svg>
