<svg xmlns="http://www.w3.org/2000/svg" viewBox="0 0 800 600" font-family="sans-serif">
<g data-part="brainstem"><path d="M385,392 C392,450 402,505 396,572 L446,572 C452,505 446,445 452,398 Z" fill="#d9b98a" stroke="#333" stroke-width="2.5"/><line x1="355" y1="540" x2="396" y2="535" stroke="#555" stroke-width="1"/><text x="350" y="545" font-size="16" text-anchor="end" fill="#1f2024">Brainstem</text></g>
<g data-part="cerebellum"><ellipse cx="545" cy="425" rx="88" ry="52" fill="#b79be0" stroke="#333" stroke-width="2.5"/><path d="M470,400 Q545,388 620,400" fill="none" stroke="#6a4fa3" stroke-width="2" stroke-linecap="round" stroke-linejoin="round" /><path d="M474,414 Q545,402 616,414" fill="none" stroke="#6a4fa3" stroke-width="2" stroke-linecap="round" stroke-linejoin="round" /><path d="M478,428 Q545,416 612,428" fill="none" stroke="#6a4fa3" stroke-width="2" stroke-linecap="round" stroke-linejoin="round" /><path d="M482,442 Q545,430 608,442" fill="none" stroke="#6a4fa3" stroke-width="2" stroke-linecap="round" stroke-linejoin="round" /><line x1="675" y1="435" x2="630" y2="432" stroke="#555" stroke-width="1"/><text x="680" y="440" font-size="16" text-anchor="start" fill="#1f2024">Cerebellum</text></g>
<g data-part="temporal-lobe"><path d="M235,338 C270,320 320,300 365,288 C420,278 480,270 540,272 C548,300 560,330 575,362 C520,390 450,405 380,405 C320,405 265,385 235,338 Z" fill="#8fd19e" stroke="#333" stroke-width="2.5" stroke-linejoin="round"/><path d="M290,345 q40,-22 90,-18 t100,-8" fill="none" stroke="#000" stroke-width="2" stroke-linecap="round" stroke-linejoin="round" stroke-opacity="0.18"/><path d="M330,375 q50,-12 100,-10 t80,-8" fill="none" stroke="#000" stroke-width="2" stroke-linecap="round" stroke-linejoin="round" stroke-opacity="0.18"/><line x1="230" y1="459" x2="330" y2="385" stroke="#555" stroke-width="1"/><text x="230" y="475" font-size="16" text-anchor="middle" fill="#1f2024">Temporal lobe</text></g>
<g data-part="occipital-lobe"><path d="M575,112 C630,150 660,220 648,300 C640,335 610,355 575,362 C560,330 548,300 540,272 C558,225 570,170 575,112 Z" fill="#f29aa6" stroke="#333" stroke-width="2.5" stroke-linejoin="round"/><path d="M590,190 q25,30 20,70" fill="none" stroke="#000" stroke-width="2" stroke-linecap="round" stroke-linejoin="round" stroke-opacity="0.18"/><path d="M575,260 q25,20 30,60" fill="none" stroke="#000" stroke-width="2" stroke-linecap="round" stroke-linejoin="round" stroke-opacity="0.18"/><line x1="675" y1="230" x2="648" y2="245" stroke="#555" stroke-width="1"/><text x="680" y="235" font-size="16" text-anchor="start" fill="#1f2024">Occipital lobe</text></g>
<g data-part="parietal-lobe"><path d="M410,62 C470,62 530,80 575,112 C570,170 558,225 540,272 C480,270 420,278 365,288 C385,220 395,140 410,62 Z" fill="#f4d76b" stroke="#333" stroke-width="2.5" stroke-linejoin="round"/><path d="M440,100 q30,40 10,90 t-10,70" fill="none" stroke="#000" stroke-width="2" stroke-linecap="round" stroke-linejoin="round" stroke-opacity="0.18"/><path d="M500,110 q25,45 10,90 t-5,50" fill="none" stroke="#000" stroke-width="2" stroke-linecap="round" stroke-linejoin="round" stroke-opacity="0.18"/><line x1="490" y1="40" x2="485" y2="78" stroke="#555" stroke-width="1"/><text x="490" y="34" font-size="16" text-anchor="middle" fill="#1f2024">Parietal lobe</text></g>
<g data-part="frontal-lobe"><path d="M160,330 C115,290 130,170 220,110 C275,72 345,60 410,62 C395,140 385,220 365,288 C320,300 270,320 235,338 C205,340 180,338 160,330 Z" fill="#8fb8ee" stroke="#333" stroke-width="2.5" stroke-linejoin="round"/><path d="M200,160 q40,30 30,80 t10,60" fill="none" stroke="#000" stroke-width="2" stroke-linecap="round" stroke-linejoin="round" stroke-opacity="0.18"/><path d="M270,115 q40,40 30,90 t5,60" fill="none" stroke="#000" stroke-width="2" stroke-linecap="round" stroke-linejoin="round" stroke-opacity="0.18"/><path d="M340,90 q20,50 5,100 t-5,70" fill="none" stroke="#000" stroke-width="2" stroke-linecap="round" stroke-linejoin="round" stroke-opacity="0.18"/><line x1="127" y1="200" x2="170" y2="215" stroke="#555" stroke-width="1"/><text x="122" y="205" font-size="16" text-anchor="end" fill="#1f2024">Frontal lobe</text></g>
<text x="60" y="330" font-size="14" fill="#6b7280">front</text><text x="700" y="330" font-size="14" fill="#6b7280">back</text>
</svg>
