<svg xmlns="http://www.w3.org/2000/svg" viewBox="0 0 800 600" font-family="sans-serif">
<path d="M405,10 C372,10 356,34 356,58 L344,76 L357,82 L356,92 L362,97 L357,104 L361,120 Q364,130 380,130 L380,152 Q374,170 300,178 Q238,186 236,242 L246,594 L560,594 L564,242 Q562,186 500,178 Q436,170 432,152 L432,122 C448,112 458,92 458,66 C458,36 440,10 405,10 Z" fill="#f4ede6" stroke="#b8aea4" stroke-width="2"/>
<circle cx="376" cy="58" r="3" fill="#b8aea4"/>
<g data-part="oesophagus"><path d="M410,99 Q420,104 420,124 L420,170 Q420,205 432,236" fill="none" stroke="#333" stroke-width="18"/><path d="M410,99 Q420,104 420,124 L420,170 Q420,205 432,236" fill="none" stroke="#e88f73" stroke-width="14"/><line x1="592" y1="150" x2="430" y2="150" stroke="#555" stroke-width="1"/><text x="596" y="155" font-size="16" text-anchor="start" fill="#1f2024">Oesophagus</text></g>
<g data-part="mouth"><path d="M360,97 Q384,81 414,90 Q424,99 414,108 Q384,113 360,97 Z" fill="#c2414f" stroke="#333" stroke-width="2"/><path d="M370,101 Q390,94 410,100 Q392,108 370,101 Z" fill="#f29aa5" stroke="#333" stroke-width="1"/><path d="M366,93 L370,90 L373,95 L377,88 L381,93 L385,87 L389,92 L393,87 L397,92 Z" fill="#fff" stroke="#333" stroke-width="0.8"/><line x1="208" y1="70" x2="359" y2="96" stroke="#555" stroke-width="1"/><text x="204" y="75" font-size="16" text-anchor="end" fill="#1f2024">Mouth</text></g>
<g data-part="salivary-glands"><path d="M421,84 a8,8 0 1 1 12,-4 a8,8 0 1 1 2,14 a8,8 0 1 1 -12,2 a7,7 0 1 1 -2,-12 Z" fill="#f6e3a1" stroke="#333" stroke-width="1.5"/><line x1="592" y1="88" x2="439" y2="88" stroke="#555" stroke-width="1"/><text x="596" y="93" font-size="16" text-anchor="start" fill="#1f2024">Salivary glands</text></g>
<g data-part="salivary-glands"><path d="M372,114 a6,6 0 1 1 10,-2 a6,6 0 1 1 10,1 a6,6 0 1 1 8,8 a7,7 0 0 1 -12,3 a7,7 0 0 1 -12,-2 a6,6 0 0 1 -4,-8 Z" fill="#f6e3a1" stroke="#333" stroke-width="1.5"/></g>
<g data-part="pancreas"><path d="M374,356 C390,338 420,352 470,358 C500,362 530,352 544,342 C542,374 500,384 460,382 C420,380 392,386 374,356 Z" fill="#f2d24b" stroke="#333" stroke-width="2"/><line x1="592" y1="365" x2="536" y2="365" stroke="#555" stroke-width="1"/><text x="596" y="370" font-size="16" text-anchor="start" fill="#1f2024">Pancreas</text></g>
<g data-part="small-intestine"><path d="M398,332 Q360,330 358,360 L358,420 Q358,430 372,430 L460,430 Q472,430 472,440.5 Q472,451 460,451 L340,451 Q328,451 328,461.5 Q328,472 340,472 L460,472 Q472,472 472,482.5 Q472,493 460,493 L300,493" fill="none" stroke="#333" stroke-width="19" stroke-linejoin="round"/><path d="M398,332 Q360,330 358,360 L358,420 Q358,430 372,430 L460,430 Q472,430 472,440.5 Q472,451 460,451 L340,451 Q328,451 328,461.5 Q328,472 340,472 L460,472 Q472,472 472,482.5 Q472,493 460,493 L300,493" fill="none" stroke="#f4a6b7" stroke-width="15" stroke-linejoin="round"/></g>
<g data-part="stomach"><path d="M424,234 C430,206 500,202 524,236 C546,270 536,326 490,346 C460,358 420,354 396,344 L400,320 C430,326 452,316 448,286 C446,264 428,256 424,234 Z" fill="#f4a261" stroke="#333" stroke-width="2" stroke-linejoin="round"/><line x1="592" y1="275" x2="537" y2="275" stroke="#555" stroke-width="1"/><text x="596" y="280" font-size="16" text-anchor="start" fill="#1f2024">Stomach</text></g>
<g data-part="liver"><path d="M262,242 Q262,212 300,208 Q380,202 440,220 Q452,226 444,238 Q400,280 330,298 Q280,308 266,280 Z" fill="#96473a" stroke="#333" stroke-width="2"/><line x1="208" y1="245" x2="263" y2="250" stroke="#555" stroke-width="1"/><text x="204" y="250" font-size="16" text-anchor="end" fill="#1f2024">Liver</text></g>
<g data-part="gallbladder"><path d="M326,290 C338,292 340,310 334,322 C328,332 314,330 312,318 C310,306 316,290 326,290 Z" fill="#4caf50" stroke="#333" stroke-width="2"/><line x1="208" y1="330" x2="313" y2="320" stroke="#555" stroke-width="1"/><text x="204" y="335" font-size="16" text-anchor="end" fill="#1f2024">Gallbladder</text></g>
<g data-part="large-intestine"><path d="M292,524 L292,422 Q292,398 316,398 L484,398 Q508,398 508,422 L508,500 Q508,530 478,530 L440,530 Q402,530 402,552" fill="none" stroke="#333" stroke-width="36" stroke-linecap="round"/><path d="M292,524 L292,422 Q292,398 316,398 L484,398 Q508,398 508,422 L508,500 Q508,530 478,530 L440,530 Q402,530 402,552" fill="none" stroke="#cfa873" stroke-width="32" stroke-linecap="round"/><path d="M276,500 Q292,506 308,500 M276,470 Q292,476 308,470 M276,440 Q292,446 308,440 M330,382 Q336,398 330,414 M365,382 Q371,398 365,414 M400,382 Q406,398 400,414 M435,382 Q441,398 435,414 M470,382 Q476,398 470,414 M492,440 Q508,446 524,440 M492,470 Q508,476 524,470 M492,500 Q508,506 524,500" fill="none" stroke="#9c7a4a" stroke-width="1.5"/><line x1="208" y1="425" x2="274" y2="440" stroke="#555" stroke-width="1"/><text x="204" y="430" font-size="16" text-anchor="end" fill="#1f2024">Large intestine</text></g>
<g data-part="small-intestine"><line x1="592" y1="455" x2="478" y2="455" stroke="#555" stroke-width="1"/><text x="596" y="460" font-size="16" text-anchor="start" fill="#1f2024">Small intestine</text></g>
<g data-part="appendix"><path d="M286,538 Q284,560 268,570" fill="none" stroke="#333" stroke-width="13" stroke-linecap="round"/><path d="M286,538 Q284,560 268,570" fill="none" stroke="#a9713a" stroke-width="9" stroke-linecap="round"/><path d="M286,538 Q284,560 268,570" fill="none" stroke="#000" stroke-opacity="0" stroke-width="22" stroke-linecap="round"/><line x1="208" y1="540" x2="264" y2="566" stroke="#555" stroke-width="1"/><text x="204" y="545" font-size="16" text-anchor="end" fill="#1f2024">Appendix</text></g>
<g data-part="rectum"><path d="M402,550 L402,590" fill="none" stroke="#333" stroke-width="32"/><path d="M402,550 L402,590" fill="none" stroke="#b9653f" stroke-width="28"/><line x1="592" y1="570" x2="418" y2="570" stroke="#555" stroke-width="1"/><text x="596" y="575" font-size="16" text-anchor="start" fill="#1f2024">Rectum</text></g>
</svg>
