<svg xmlns="http://www.w3.org/2000/svg" viewBox="0 0 800 570" font-family="sans-serif">
<g data-part="tendon"><path d="M16,130 L80,130" fill="none" stroke="#333" stroke-width="20"/><path d="M15,130 L80,130" fill="none" stroke="#cfd9df" stroke-width="16"/><line x1="46" y1="206" x2="44" y2="141" stroke="#555" stroke-width="1"/><text x="46" y="222" font-size="16" text-anchor="middle" fill="#1f2024">Tendon</text></g>
<g data-part="whole-muscle"><path d="M72,120 C105,60 200,68 250,70 L250,190 C200,192 105,200 72,140 Z" fill="#d9534f" stroke="#333" stroke-width="2" stroke-linejoin="round"/><path d="M88,120 C125,90 200,92 228,93" fill="none" stroke="#8f2f2c" stroke-opacity="0.4" stroke-width="1.2"/><path d="M86,130 C130,126 200,128 224,129" fill="none" stroke="#8f2f2c" stroke-opacity="0.4" stroke-width="1.2"/><path d="M88,140 C125,170 200,168 228,167" fill="none" stroke="#8f2f2c" stroke-opacity="0.4" stroke-width="1.2"/><ellipse cx="250" cy="130" rx="27" ry="60" fill="#f3c3ba" stroke="#333" stroke-width="2" stroke-linejoin="round"/><circle cx="250" cy="85" r="9.5" fill="#ea8573" stroke="#333" stroke-width="1"/><circle cx="238" cy="105" r="9.5" fill="#ea8573" stroke="#333" stroke-width="1"/><circle cx="261" cy="106" r="9.5" fill="#ea8573" stroke="#333" stroke-width="1"/><circle cx="249" cy="127" r="9.5" fill="#ea8573" stroke="#333" stroke-width="1"/><circle cx="237" cy="148" r="9.5" fill="#ea8573" stroke="#333" stroke-width="1"/><circle cx="260" cy="150" r="9.5" fill="#ea8573" stroke="#333" stroke-width="2.4"/><circle cx="249" cy="172" r="9.5" fill="#ea8573" stroke="#333" stroke-width="1"/><line x1="98" y1="40" x2="112" y2="88" stroke="#555" stroke-width="1"/><text x="92" y="34" font-size="16" text-anchor="middle" fill="#1f2024">Whole muscle</text></g>
<g data-part="blood-vessels"><path d="M196,44 L195,104 L158,140 L118,148" fill="none" stroke="#fff" stroke-opacity="0.85" stroke-width="6.5" stroke-linecap="round" stroke-linejoin="round"/><path d="M195,104 L216,122" fill="none" stroke="#fff" stroke-opacity="0.85" stroke-width="6.5" stroke-linecap="round" stroke-linejoin="round"/><path d="M196,44 L195,104 L158,140 L118,148" fill="none" stroke="#2b6cb0" stroke-width="3.2" stroke-linecap="round" stroke-linejoin="round"/><path d="M196,44 L195,104 L158,140 L118,148" fill="none" stroke="#000" stroke-opacity="0" stroke-width="11"/><path d="M195,104 L216,122" fill="none" stroke="#2b6cb0" stroke-width="3.2" stroke-linecap="round" stroke-linejoin="round"/><path d="M195,104 L216,122" fill="none" stroke="#000" stroke-opacity="0" stroke-width="11"/><path d="M182,44 L180,96 L142,112 L108,114" fill="none" stroke="#fff" stroke-opacity="0.85" stroke-width="6.5" stroke-linecap="round" stroke-linejoin="round"/><path d="M180,96 L200,140 L196,170" fill="none" stroke="#fff" stroke-opacity="0.85" stroke-width="6.5" stroke-linecap="round" stroke-linejoin="round"/><path d="M182,44 L180,96 L142,112 L108,114" fill="none" stroke="#d62828" stroke-width="3.2" stroke-linecap="round" stroke-linejoin="round"/><path d="M182,44 L180,96 L142,112 L108,114" fill="none" stroke="#000" stroke-opacity="0" stroke-width="11"/><path d="M180,96 L200,140 L196,170" fill="none" stroke="#d62828" stroke-width="3.2" stroke-linecap="round" stroke-linejoin="round"/><path d="M180,96 L200,140 L196,170" fill="none" stroke="#000" stroke-opacity="0" stroke-width="11"/><line x1="226" y1="38" x2="201" y2="50" stroke="#555" stroke-width="1"/><text x="256" y="34" font-size="16" text-anchor="middle" fill="#1f2024">Blood vessels</text></g>
<g data-part="fascicle"><line x1="262" y1="141" x2="306" y2="250" stroke="#777" stroke-width="1.2" stroke-dasharray="5 4"/><line x1="262" y1="159" x2="306" y2="330" stroke="#777" stroke-width="1.2" stroke-dasharray="5 4"/><path d="M316,248 L456,248 A14,42 0 0 1 456,332 L316,332 A14,42 0 0 1 316,248 Z" fill="#ea8573" stroke="#333" stroke-width="2" stroke-linejoin="round"/><line x1="318" y1="260" x2="443" y2="260" stroke="#a23f38" stroke-opacity="0.5" stroke-width="1.2"/><line x1="318" y1="272" x2="443" y2="272" stroke="#a23f38" stroke-opacity="0.5" stroke-width="1.2"/><line x1="318" y1="284" x2="443" y2="284" stroke="#a23f38" stroke-opacity="0.5" stroke-width="1.2"/><line x1="318" y1="296" x2="443" y2="296" stroke="#a23f38" stroke-opacity="0.5" stroke-width="1.2"/><line x1="318" y1="308" x2="443" y2="308" stroke="#a23f38" stroke-opacity="0.5" stroke-width="1.2"/><line x1="318" y1="320" x2="443" y2="320" stroke="#a23f38" stroke-opacity="0.5" stroke-width="1.2"/><ellipse cx="456" cy="290" rx="14" ry="42" fill="#fbe0d9" stroke="#333" stroke-width="2" stroke-linejoin="round"/><ellipse cx="456" cy="258" rx="4.2" ry="6.2" fill="#f6b9ab" stroke="#333" stroke-width="0.8"/><ellipse cx="451" cy="274" rx="4.2" ry="6.2" fill="#f6b9ab" stroke="#333" stroke-width="0.8"/><ellipse cx="461" cy="276" rx="4.2" ry="6.2" fill="#f6b9ab" stroke="#333" stroke-width="0.8"/><ellipse cx="456" cy="291" rx="4.2" ry="6.2" fill="#f6b9ab" stroke="#333" stroke-width="0.8"/><ellipse cx="450" cy="307" rx="4.2" ry="6.2" fill="#f6b9ab" stroke="#333" stroke-width="0.8"/><ellipse cx="461" cy="306" rx="4.2" ry="6.2" fill="#f6b9ab" stroke="#333" stroke-width="2"/><ellipse cx="456" cy="322" rx="4.2" ry="6.2" fill="#f6b9ab" stroke="#333" stroke-width="0.8"/><line x1="392" y1="218" x2="388" y2="247" stroke="#555" stroke-width="1"/><text x="400" y="212" font-size="16" text-anchor="middle" fill="#1f2024">Bundle (fascicle)</text></g>
<g data-part="muscle-fibre"><line x1="463" y1="300" x2="493" y2="394" stroke="#777" stroke-width="1.2" stroke-dasharray="5 4"/><line x1="461" y1="312" x2="493" y2="446" stroke="#777" stroke-width="1.2" stroke-dasharray="5 4"/><path d="M500,392 L634,392 A10,28 0 0 1 634,448 L500,448 A10,28 0 0 1 500,392 Z" fill="#f6b9ab" stroke="#333" stroke-width="2" stroke-linejoin="round"/><line x1="503" y1="394" x2="503" y2="446" stroke="#b5545a" stroke-opacity="0.55" stroke-width="1.6"/><line x1="510" y1="394" x2="510" y2="446" stroke="#b5545a" stroke-opacity="0.55" stroke-width="1.6"/><line x1="517" y1="394" x2="517" y2="446" stroke="#b5545a" stroke-opacity="0.55" stroke-width="1.6"/><line x1="524" y1="394" x2="524" y2="446" stroke="#b5545a" stroke-opacity="0.55" stroke-width="1.6"/><line x1="531" y1="394" x2="531" y2="446" stroke="#b5545a" stroke-opacity="0.55" stroke-width="1.6"/><line x1="538" y1="394" x2="538" y2="446" stroke="#b5545a" stroke-opacity="0.55" stroke-width="1.6"/><line x1="545" y1="394" x2="545" y2="446" stroke="#b5545a" stroke-opacity="0.55" stroke-width="1.6"/><line x1="552" y1="394" x2="552" y2="446" stroke="#b5545a" stroke-opacity="0.55" stroke-width="1.6"/><line x1="559" y1="394" x2="559" y2="446" stroke="#b5545a" stroke-opacity="0.55" stroke-width="1.6"/><line x1="566" y1="394" x2="566" y2="446" stroke="#b5545a" stroke-opacity="0.55" stroke-width="1.6"/><line x1="573" y1="394" x2="573" y2="446" stroke="#b5545a" stroke-opacity="0.55" stroke-width="1.6"/><line x1="580" y1="394" x2="580" y2="446" stroke="#b5545a" stroke-opacity="0.55" stroke-width="1.6"/><line x1="587" y1="394" x2="587" y2="446" stroke="#b5545a" stroke-opacity="0.55" stroke-width="1.6"/><line x1="594" y1="394" x2="594" y2="446" stroke="#b5545a" stroke-opacity="0.55" stroke-width="1.6"/><line x1="601" y1="394" x2="601" y2="446" stroke="#b5545a" stroke-opacity="0.55" stroke-width="1.6"/><line x1="608" y1="394" x2="608" y2="446" stroke="#b5545a" stroke-opacity="0.55" stroke-width="1.6"/><line x1="615" y1="394" x2="615" y2="446" stroke="#b5545a" stroke-opacity="0.55" stroke-width="1.6"/><line x1="622" y1="394" x2="622" y2="446" stroke="#b5545a" stroke-opacity="0.55" stroke-width="1.6"/><ellipse cx="524" cy="400" rx="9" ry="4" fill="#5b3a8c" stroke="#333" stroke-width="0.8"/><ellipse cx="572" cy="441" rx="9" ry="4" fill="#5b3a8c" stroke="#333" stroke-width="0.8"/><ellipse cx="604" cy="400" rx="9" ry="4" fill="#5b3a8c" stroke="#333" stroke-width="0.8"/><ellipse cx="532" cy="441" rx="9" ry="4" fill="#5b3a8c" stroke="#333" stroke-width="0.8"/><ellipse cx="634" cy="420" rx="10" ry="28" fill="#fdeee9" stroke="#333" stroke-width="2" stroke-linejoin="round"/><ellipse cx="634" cy="399" rx="2.8" ry="3.8" fill="#fbe6c9" stroke="#333" stroke-width="0.7"/><ellipse cx="630" cy="409" rx="2.8" ry="3.8" fill="#fbe6c9" stroke="#333" stroke-width="0.7"/><ellipse cx="638" cy="411" rx="2.8" ry="3.8" fill="#fbe6c9" stroke="#333" stroke-width="0.7"/><ellipse cx="634" cy="420" rx="2.8" ry="3.8" fill="#fbe6c9" stroke="#333" stroke-width="0.7"/><ellipse cx="630" cy="431" rx="2.8" ry="3.8" fill="#fbe6c9" stroke="#333" stroke-width="0.7"/><ellipse cx="637" cy="430" rx="2.8" ry="3.8" fill="#fbe6c9" stroke="#333" stroke-width="1.8"/><ellipse cx="634" cy="441" rx="2.8" ry="3.8" fill="#fbe6c9" stroke="#333" stroke-width="0.7"/><line x1="568" y1="358" x2="564" y2="390" stroke="#555" stroke-width="1"/><text x="574" y="352" font-size="16" text-anchor="middle" fill="#1f2024">Muscle fibre</text></g>
<g data-part="myofibril"><line x1="639" y1="427" x2="668" y2="510" stroke="#777" stroke-width="1.2" stroke-dasharray="5 4"/><line x1="636" y1="434" x2="662" y2="542" stroke="#777" stroke-width="1.2" stroke-dasharray="5 4"/><path d="M672,510 L782,510 A5,16 0 0 1 782,542 L672,542 A5,16 0 0 1 672,510 Z" fill="#fbe6c9" stroke="#333" stroke-width="2" stroke-linejoin="round"/><rect x="677" y="511" width="13" height="30" fill="#b5545a"/><line x1="695.5" y1="511" x2="695.5" y2="541" stroke="#333" stroke-width="1.2"/><rect x="701" y="511" width="13" height="30" fill="#b5545a"/><line x1="719.5" y1="511" x2="719.5" y2="541" stroke="#333" stroke-width="1.2"/><rect x="725" y="511" width="13" height="30" fill="#b5545a"/><line x1="743.5" y1="511" x2="743.5" y2="541" stroke="#333" stroke-width="1.2"/><rect x="749" y="511" width="13" height="30" fill="#b5545a"/><line x1="767.5" y1="511" x2="767.5" y2="541" stroke="#333" stroke-width="1.2"/><path d="M672,510 L782,510 A5,16 0 0 1 782,542 L672,542 A5,16 0 0 1 672,510 Z" fill="none" stroke="#333" stroke-width="2" stroke-linejoin="round"/><ellipse cx="782" cy="526" rx="5" ry="16" fill="#fbe6c9" stroke="#333" stroke-width="2" stroke-linejoin="round"/><rect x="666" y="504" width="122" height="44" fill="#000" fill-opacity="0"/><line x1="728" y1="476" x2="728" y2="508" stroke="#555" stroke-width="1"/><text x="728" y="470" font-size="16" text-anchor="middle" fill="#1f2024">Myofibril</text></g>
</svg>
