<svg xmlns="http://www.w3.org/2000/svg" viewBox="0 70 800 360" font-family="sans-serif">
<g data-part="neutrophil"><circle cx="88" cy="250" r="58" fill="#f6eef7" stroke="#8a7aa8" stroke-width="2.5"/><circle cx="79.7" cy="266.7" r="2" fill="#d9c6e6"/><circle cx="80.5" cy="239.5" r="2" fill="#d9c6e6"/><circle cx="59.7" cy="243.5" r="2" fill="#d9c6e6"/><circle cx="119.9" cy="262.2" r="2" fill="#d9c6e6"/><circle cx="118.7" cy="257.4" r="2" fill="#d9c6e6"/><circle cx="101.1" cy="256.1" r="2" fill="#d9c6e6"/><circle cx="49.2" cy="269.9" r="2" fill="#d9c6e6"/><circle cx="104.2" cy="265.9" r="2" fill="#d9c6e6"/><circle cx="55.5" cy="216.5" r="2" fill="#d9c6e6"/><circle cx="61.2" cy="235.9" r="2" fill="#d9c6e6"/><circle cx="98.2" cy="248.5" r="2" fill="#d9c6e6"/><circle cx="104.3" cy="229.9" r="2" fill="#d9c6e6"/><circle cx="98.2" cy="263.0" r="2" fill="#d9c6e6"/><circle cx="72.4" cy="290.5" r="2" fill="#d9c6e6"/><circle cx="103.4" cy="283.2" r="2" fill="#d9c6e6"/><circle cx="69.2" cy="227.6" r="2" fill="#d9c6e6"/><circle cx="76.5" cy="246.4" r="2" fill="#d9c6e6"/><circle cx="108.3" cy="258.0" r="2" fill="#d9c6e6"/><circle cx="74.7" cy="221.6" r="2" fill="#d9c6e6"/><circle cx="73.6" cy="283.8" r="2" fill="#d9c6e6"/><circle cx="62.8" cy="257.6" r="2" fill="#d9c6e6"/><circle cx="99.0" cy="211.4" r="2" fill="#d9c6e6"/><circle cx="89.3" cy="286.4" r="2" fill="#d9c6e6"/><circle cx="43.7" cy="242.9" r="2" fill="#d9c6e6"/><circle cx="84.7" cy="224.5" r="2" fill="#d9c6e6"/><circle cx="104.4" cy="248.0" r="2" fill="#d9c6e6"/><path d="M64,244 L84,228 L108,242 L98,268" fill="none" stroke="#6a4fb0" stroke-width="7" stroke-linecap="round"/><circle cx="64" cy="244" r="14" fill="#6a4fb0"/><circle cx="84" cy="228" r="14" fill="#6a4fb0"/><circle cx="108" cy="242" r="14" fill="#6a4fb0"/><circle cx="98" cy="268" r="14" fill="#6a4fb0"/><text x="88" y="375" font-size="17" text-anchor="middle" fill="#1f2024">Neutrophil</text><text x="88" y="398" font-size="14" text-anchor="middle" fill="#6b7280">50–70%</text></g>
<g data-part="lymphocyte"><circle cx="244" cy="250" r="46" fill="#f6eef7" stroke="#8a7aa8" stroke-width="2.5"/><circle cx="244" cy="250" r="36" fill="#6a4fb0"/><text x="244" y="375" font-size="17" text-anchor="middle" fill="#1f2024">Lymphocyte</text><text x="244" y="398" font-size="14" text-anchor="middle" fill="#6b7280">20–40%</text></g>
<g data-part="monocyte"><circle cx="400" cy="250" r="68" fill="#f6eef7" stroke="#8a7aa8" stroke-width="2.5"/><path transform="translate(400,250)" d="M-34,-22 C-10,-48 40,-34 42,2 C44,36 4,46 -30,28 C-6,18 -4,-8 -34,-22 Z" fill="#6a4fb0"/><text x="400" y="375" font-size="17" text-anchor="middle" fill="#1f2024">Monocyte</text><text x="400" y="398" font-size="14" text-anchor="middle" fill="#6b7280">2–8%</text></g>
<g data-part="eosinophil"><circle cx="556" cy="250" r="56" fill="#f6eef7" stroke="#8a7aa8" stroke-width="2.5"/><circle cx="521.2" cy="269.7" r="3.6" fill="#e8506b"/><circle cx="574.6" cy="276.3" r="3.6" fill="#e8506b"/><circle cx="592.5" cy="259.2" r="3.6" fill="#e8506b"/><circle cx="559.2" cy="215.3" r="3.6" fill="#e8506b"/><circle cx="574.3" cy="231.8" r="3.6" fill="#e8506b"/><circle cx="544.0" cy="216.6" r="3.6" fill="#e8506b"/><circle cx="528.8" cy="235.0" r="3.6" fill="#e8506b"/><circle cx="579.9" cy="212.2" r="3.6" fill="#e8506b"/><circle cx="519.0" cy="256.1" r="3.6" fill="#e8506b"/><circle cx="591.8" cy="264.3" r="3.6" fill="#e8506b"/><circle cx="528.4" cy="213.4" r="3.6" fill="#e8506b"/><circle cx="566.7" cy="227.9" r="3.6" fill="#e8506b"/><circle cx="527.7" cy="274.7" r="3.6" fill="#e8506b"/><circle cx="586.9" cy="254.4" r="3.6" fill="#e8506b"/><circle cx="563.8" cy="263.7" r="3.6" fill="#e8506b"/><circle cx="593.6" cy="264.6" r="3.6" fill="#e8506b"/><circle cx="571.7" cy="266.6" r="3.6" fill="#e8506b"/><circle cx="522.8" cy="277.2" r="3.6" fill="#e8506b"/><circle cx="583.0" cy="265.0" r="3.6" fill="#e8506b"/><circle cx="514.8" cy="236.8" r="3.6" fill="#e8506b"/><circle cx="574.0" cy="211.2" r="3.6" fill="#e8506b"/><circle cx="550.7" cy="279.2" r="3.6" fill="#e8506b"/><circle cx="528.7" cy="283.5" r="3.6" fill="#e8506b"/><circle cx="573.2" cy="245.3" r="3.6" fill="#e8506b"/><circle cx="565.9" cy="269.8" r="3.6" fill="#e8506b"/><circle cx="559.3" cy="281.9" r="3.6" fill="#e8506b"/><circle cx="536.0" cy="237.5" r="3.6" fill="#e8506b"/><circle cx="585.8" cy="250.8" r="3.6" fill="#e8506b"/><circle cx="532.4" cy="275.3" r="3.6" fill="#e8506b"/><circle cx="592.6" cy="238.9" r="3.6" fill="#e8506b"/><circle cx="520.0" cy="246.5" r="3.6" fill="#e8506b"/><circle cx="551.2" cy="240.4" r="3.6" fill="#e8506b"/><circle cx="588.8" cy="226.0" r="3.6" fill="#e8506b"/><circle cx="585.0" cy="220.9" r="3.6" fill="#e8506b"/><circle cx="533.3" cy="268.2" r="3.6" fill="#e8506b"/><circle cx="585.2" cy="272.2" r="3.6" fill="#e8506b"/><circle cx="567.0" cy="254.6" r="3.6" fill="#e8506b"/><circle cx="560.7" cy="267.9" r="3.6" fill="#e8506b"/><circle cx="550.3" cy="258.9" r="3.6" fill="#e8506b"/><circle cx="573.9" cy="250.0" r="3.6" fill="#e8506b"/><circle cx="578.3" cy="266.5" r="3.6" fill="#e8506b"/><circle cx="598.5" cy="256.9" r="3.6" fill="#e8506b"/><circle cx="542.6" cy="238.4" r="3.6" fill="#e8506b"/><circle cx="555.6" cy="277.1" r="3.6" fill="#e8506b"/><circle cx="545.4" cy="262.1" r="3.6" fill="#e8506b"/><circle cx="582.7" cy="212.7" r="3.6" fill="#e8506b"/><circle cx="524.7" cy="256.8" r="3.6" fill="#e8506b"/><circle cx="568.6" cy="257.6" r="3.6" fill="#e8506b"/><circle cx="543.0" cy="269.8" r="3.6" fill="#e8506b"/><circle cx="564.8" cy="233.7" r="3.6" fill="#e8506b"/><circle cx="600.4" cy="256.5" r="3.6" fill="#e8506b"/><circle cx="538.7" cy="246.9" r="3.6" fill="#e8506b"/><circle cx="548.7" cy="248.0" r="3.6" fill="#e8506b"/><circle cx="511.2" cy="242.0" r="3.6" fill="#e8506b"/><circle cx="581.1" cy="220.9" r="3.6" fill="#e8506b"/><circle cx="554.1" cy="277.8" r="3.6" fill="#e8506b"/><circle cx="576.1" cy="285.0" r="3.6" fill="#e8506b"/><circle cx="516.2" cy="241.7" r="3.6" fill="#e8506b"/><circle cx="545.6" cy="269.1" r="3.6" fill="#e8506b"/><circle cx="573.2" cy="207.7" r="3.6" fill="#e8506b"/><path d="M539,245 L573,255" fill="none" stroke="#6a4fb0" stroke-width="7" stroke-linecap="round"/><circle cx="539" cy="245" r="17" fill="#6a4fb0"/><circle cx="573" cy="255" r="17" fill="#6a4fb0"/><text x="556" y="375" font-size="17" text-anchor="middle" fill="#1f2024">Eosinophil</text><text x="556" y="398" font-size="14" text-anchor="middle" fill="#6b7280">1–4%</text></g>
<g data-part="basophil"><circle cx="708" cy="250" r="52" fill="#f6eef7" stroke="#8a7aa8" stroke-width="2.5"/><path d="M695,244 L721,256" fill="none" stroke="#a493d6" stroke-width="7" stroke-linecap="round"/><circle cx="695" cy="244" r="17" fill="#a493d6"/><circle cx="721" cy="256" r="17" fill="#a493d6"/><circle cx="730.7" cy="219.9" r="5" fill="#2d2a7a"/><circle cx="723.0" cy="217.2" r="5" fill="#2d2a7a"/><circle cx="712.4" cy="279.9" r="5" fill="#2d2a7a"/><circle cx="703.6" cy="255.6" r="5" fill="#2d2a7a"/><circle cx="729.9" cy="253.9" r="5" fill="#2d2a7a"/><circle cx="706.0" cy="284.9" r="5" fill="#2d2a7a"/><circle cx="735.0" cy="242.4" r="5" fill="#2d2a7a"/><circle cx="746.5" cy="233.9" r="5" fill="#2d2a7a"/><circle cx="732.4" cy="242.9" r="5" fill="#2d2a7a"/><circle cx="711.7" cy="269.7" r="5" fill="#2d2a7a"/><circle cx="714.2" cy="267.9" r="5" fill="#2d2a7a"/><circle cx="679.7" cy="222.0" r="5" fill="#2d2a7a"/><circle cx="723.7" cy="225.5" r="5" fill="#2d2a7a"/><circle cx="686.5" cy="219.2" r="5" fill="#2d2a7a"/><circle cx="737.4" cy="267.3" r="5" fill="#2d2a7a"/><circle cx="739.3" cy="230.1" r="5" fill="#2d2a7a"/><circle cx="708.0" cy="221.0" r="5" fill="#2d2a7a"/><circle cx="724.2" cy="283.6" r="5" fill="#2d2a7a"/><circle cx="689.4" cy="282.6" r="5" fill="#2d2a7a"/><circle cx="734.0" cy="245.3" r="5" fill="#2d2a7a"/><circle cx="674.7" cy="273.7" r="5" fill="#2d2a7a"/><circle cx="705.3" cy="232.9" r="5" fill="#2d2a7a"/><circle cx="719.4" cy="261.7" r="5" fill="#2d2a7a"/><circle cx="739.2" cy="228.8" r="5" fill="#2d2a7a"/><circle cx="731.2" cy="280.3" r="5" fill="#2d2a7a"/><circle cx="741.8" cy="245.8" r="5" fill="#2d2a7a"/><circle cx="689.6" cy="275.1" r="5" fill="#2d2a7a"/><circle cx="711.4" cy="253.7" r="5" fill="#2d2a7a"/><circle cx="741.3" cy="243.8" r="5" fill="#2d2a7a"/><circle cx="668.0" cy="243.3" r="5" fill="#2d2a7a"/><circle cx="672.1" cy="265.8" r="5" fill="#2d2a7a"/><circle cx="716.9" cy="232.9" r="5" fill="#2d2a7a"/><circle cx="707.7" cy="272.7" r="5" fill="#2d2a7a"/><circle cx="709.9" cy="282.1" r="5" fill="#2d2a7a"/><circle cx="706.4" cy="277.1" r="5" fill="#2d2a7a"/><circle cx="735.2" cy="279.4" r="5" fill="#2d2a7a"/><circle cx="690.7" cy="272.6" r="5" fill="#2d2a7a"/><circle cx="673.4" cy="230.0" r="5" fill="#2d2a7a"/><text x="708" y="375" font-size="17" text-anchor="middle" fill="#1f2024">Basophil</text><text x="708" y="398" font-size="14" text-anchor="middle" fill="#6b7280">under 1%</text></g>
<text x="400" y="110" font-size="15" text-anchor="middle" fill="#6b7280">Percentages show each type's share of all white blood cells</text>
</svg>
